<svg width="124" height="197" viewBox="0 0 124 197" fill="none" xmlns="http://www.w3.org/2000/svg">
<rect x="1" y="1" width="122" height="195" rx="4" fill="#F9F5EC"/>
<rect x="1" y="1" width="122" height="195" rx="4" stroke="#2D2C27" stroke-width="2"/>
<g filter="url(#filter0_d_4987_441)">
<rect x="8" y="82" width="28" height="28" rx="3.08" fill="#F9F5EC" shape-rendering="crispEdges"/>
<rect x="8.28" y="82.28" width="27.44" height="27.44" rx="2.8" stroke="#2D2C27" stroke-width="0.56" shape-rendering="crispEdges"/>
<path d="M18.005 104.923C18.1231 103.106 18.3778 101.408 18.7691 99.8284C19.1604 98.2485 19.6107 96.7793 20.1202 95.4208C20.6296 94.055 21.1205 92.8036 21.593 91.6667L22.6783 89.0421H17.1744V85.4319H27.0083V87.5581C27.0083 88.3407 26.8791 89.1307 26.6207 89.928C26.3623 90.7254 26.0227 91.6039 25.6019 92.5637C24.6864 94.6456 23.9555 96.7202 23.4092 98.7874C22.8703 100.847 22.538 102.892 22.4125 104.923H18.005Z" fill="#2D2C27"/>
</g>
<g filter="url(#filter1_d_4987_441)">
<rect x="48" y="82" width="28" height="28" rx="3.08" fill="#F9F5EC" shape-rendering="crispEdges"/>
<rect x="48.28" y="82.28" width="27.44" height="27.44" rx="2.8" stroke="#2D2C27" stroke-width="0.56" shape-rendering="crispEdges"/>
<path d="M62.0028 105.144C60.1718 105.144 58.8651 104.62 58.0825 103.571C57.2999 102.523 56.9086 101.039 56.9086 99.1196V97.8239C56.9086 96.8346 57.0268 96.0336 57.263 95.4208C57.4993 94.8081 57.9348 94.3393 58.5698 94.0144C57.9718 93.7708 57.5472 93.3647 57.2962 92.7962C57.0452 92.2204 56.9197 91.5079 56.9197 90.6589V90.1495C56.9197 88.4219 57.3516 87.1669 58.2154 86.3843C59.0866 85.5943 60.349 85.1993 62.0028 85.1993C63.7008 85.1993 64.9707 85.6054 65.8123 86.4175C66.6539 87.2222 67.0748 88.5179 67.0748 90.3045C67.0748 91.2422 66.964 92.0284 66.7425 92.6634C66.5211 93.2983 66.0818 93.756 65.4247 94.0366C66.1261 94.3983 66.5801 94.8745 66.7868 95.4651C66.9936 96.0484 67.0969 96.8346 67.0969 97.8239V99.1196C67.0969 101.039 66.7056 102.523 65.923 103.571C65.1405 104.62 63.8337 105.144 62.0028 105.144ZM62.0028 92.3754C62.6894 92.3754 63.0327 91.7553 63.0327 90.515C63.0327 90.1015 62.9588 89.7102 62.8112 89.3411C62.6709 88.972 62.4014 88.7874 62.0028 88.7874C61.6041 88.7874 61.3309 88.972 61.1833 89.3411C61.043 89.7102 60.9729 90.1015 60.9729 90.515C60.9729 91.7553 61.3162 92.3754 62.0028 92.3754ZM62.0028 101.29C62.7115 101.29 63.0659 100.718 63.0659 99.5737V97.7907C63.0659 97.2001 62.9847 96.7387 62.8223 96.4064C62.6672 96.0742 62.3941 95.9081 62.0028 95.9081C61.5967 95.9081 61.3199 96.0742 61.1722 96.4064C61.0245 96.7387 60.9507 97.2001 60.9507 97.7907V99.5737C60.9507 100.718 61.3014 101.29 62.0028 101.29Z" fill="#2D2C27"/>
</g>
<g filter="url(#filter2_d_4987_441)">
<rect x="87" y="82" width="28" height="28" rx="3.08" fill="#F9F5EC" shape-rendering="crispEdges"/>
<rect x="87.28" y="82.28" width="27.44" height="27.44" rx="2.8" stroke="#2D2C27" stroke-width="0.56" shape-rendering="crispEdges"/>
<path d="M100.97 105.111C100.15 105.111 99.3859 104.971 98.6772 104.69C97.9684 104.402 97.3963 103.974 96.9607 103.405C96.5251 102.837 96.3073 102.132 96.3073 101.29V99.1861H100.061V99.5847C100.061 99.9096 100.076 100.234 100.106 100.559C100.143 100.884 100.228 101.154 100.36 101.368C100.501 101.582 100.726 101.689 101.036 101.689C101.472 101.689 101.774 101.571 101.944 101.334C102.114 101.091 102.199 100.744 102.199 100.293V96.3843C102.014 96.7239 101.737 97.0008 101.368 97.2149C100.999 97.429 100.549 97.536 100.017 97.536C98.9467 97.536 98.1198 97.3219 97.5365 96.8937C96.9533 96.4581 96.5509 95.8121 96.3295 94.9557C96.108 94.0993 95.9972 93.0288 95.9972 91.7442C95.9972 90.4448 96.156 89.3116 96.4734 88.3444C96.7909 87.3699 97.3187 86.6131 98.057 86.0742C98.8027 85.5353 99.8104 85.2658 101.08 85.2658C102.439 85.2658 103.498 85.4983 104.259 85.9635C105.019 86.4212 105.554 87.1152 105.864 88.0454C106.182 88.9683 106.341 90.1274 106.341 91.5227V96.794C106.341 98.1451 106.281 99.3374 106.163 100.371C106.053 101.405 105.816 102.272 105.455 102.973C105.093 103.675 104.554 104.206 103.838 104.568C103.122 104.93 102.166 105.111 100.97 105.111ZM101.169 94.0919C101.855 94.0919 102.199 93.6305 102.199 92.7077V90.2935C102.199 89.3337 101.874 88.8538 101.224 88.8538C100.767 88.8538 100.493 89.0495 100.405 89.4408C100.316 89.8247 100.272 90.3193 100.272 90.9247V92.4972C100.272 93.5604 100.571 94.0919 101.169 94.0919Z" fill="#2D2C27"/>
</g>
<g filter="url(#filter3_d_4987_441)">
<rect x="8" y="120" width="28" height="28" rx="3.08" fill="#F9F5EC" shape-rendering="crispEdges"/>
<rect x="8.28" y="120.28" width="27.44" height="27.44" rx="2.8" stroke="#2D2C27" stroke-width="0.56" shape-rendering="crispEdges"/>
<path d="M22.3793 142.945V139.855H16.5986V136.81L20.2863 123.432H26.3549V136.599H27.3959V139.855H26.3549V142.945H22.3793ZM20.0759 136.599H22.3793V126.776L20.0759 136.599Z" fill="#2D2C27"/>
</g>
<g filter="url(#filter4_d_4987_441)">
<rect x="48" y="120" width="28" height="28" rx="3.08" fill="#F9F5EC" shape-rendering="crispEdges"/>
<rect x="48.28" y="120.28" width="27.44" height="27.44" rx="2.8" stroke="#2D2C27" stroke-width="0.56" shape-rendering="crispEdges"/>
<path d="M62.0028 143.21C60.5041 143.21 59.2785 142.841 58.3261 142.103C57.3811 141.357 56.9086 140.217 56.9086 138.681V135.78H60.9618V137.452C60.9618 137.799 60.9803 138.135 61.0172 138.46C61.0615 138.784 61.1574 139.05 61.3051 139.257C61.4528 139.464 61.6853 139.567 62.0028 139.567C62.4236 139.567 62.7004 139.427 62.8333 139.146C62.9662 138.858 63.0327 138.493 63.0327 138.05V134.218C63.0327 133.901 63.0105 133.587 62.9662 133.277C62.9293 132.967 62.8407 132.708 62.7004 132.502C62.5602 132.295 62.335 132.192 62.0249 132.192C61.2866 132.192 60.9175 132.727 60.9175 133.797H57.3405V123.432H66.6318V127.086H61.0393V129.833C61.2313 129.597 61.4897 129.39 61.8145 129.213C62.1467 129.028 62.5343 128.936 62.9773 128.936C63.8632 128.936 64.5831 129.106 65.1368 129.445C65.6979 129.785 66.1261 130.257 66.4214 130.863C66.7241 131.468 66.9308 132.169 67.0415 132.967C67.1597 133.764 67.2187 134.621 67.2187 135.536C67.2187 136.71 67.156 137.769 67.0305 138.714C66.9123 139.652 66.6724 140.457 66.3106 141.128C65.9563 141.8 65.4321 142.317 64.7381 142.679C64.0515 143.033 63.1397 143.21 62.0028 143.21Z" fill="#2D2C27"/>
</g>
<g filter="url(#filter5_d_4987_441)">
<rect x="87" y="120" width="28" height="28" rx="3.08" fill="#F9F5EC" shape-rendering="crispEdges"/>
<rect x="87.28" y="120.28" width="27.44" height="27.44" rx="2.8" stroke="#2D2C27" stroke-width="0.56" shape-rendering="crispEdges"/>
<path d="M101.257 143.111C99.9064 143.111 98.847 142.882 98.0792 142.424C97.3187 141.959 96.7798 141.261 96.4623 140.331C96.1523 139.401 95.9972 138.242 95.9972 136.854V131.583C95.9972 130.231 96.0526 129.039 96.1633 128.006C96.2815 126.972 96.5214 126.104 96.8832 125.403C97.2449 124.702 97.7839 124.17 98.5 123.808C99.2161 123.447 100.172 123.266 101.368 123.266C102.188 123.266 102.952 123.41 103.661 123.698C104.369 123.978 104.942 124.403 105.377 124.971C105.813 125.532 106.03 126.237 106.03 127.086V129.19H102.276V128.792C102.276 128.467 102.258 128.142 102.221 127.817C102.191 127.492 102.11 127.223 101.977 127.009C101.844 126.795 101.619 126.688 101.302 126.688C100.866 126.688 100.563 126.81 100.394 127.053C100.224 127.289 100.139 127.633 100.139 128.083V131.992C100.324 131.645 100.6 131.368 100.97 131.162C101.339 130.948 101.789 130.841 102.321 130.841C103.398 130.841 104.225 131.058 104.801 131.494C105.384 131.922 105.787 132.564 106.008 133.421C106.23 134.277 106.341 135.348 106.341 136.632C106.341 137.932 106.182 139.069 105.864 140.043C105.547 141.01 105.015 141.763 104.27 142.302C103.531 142.841 102.527 143.111 101.257 143.111ZM101.114 139.523C101.571 139.523 101.844 139.331 101.933 138.947C102.022 138.556 102.066 138.057 102.066 137.452V135.879C102.066 134.816 101.767 134.285 101.169 134.285C100.482 134.285 100.139 134.746 100.139 135.669V138.083C100.139 139.043 100.464 139.523 101.114 139.523Z" fill="#2D2C27"/>
</g>
<g filter="url(#filter6_d_4987_441)">
<rect x="8" y="158" width="28" height="28" rx="3.08" fill="#F9F5EC" shape-rendering="crispEdges"/>
<rect x="8.28" y="158.28" width="27.44" height="27.44" rx="2.8" stroke="#2D2C27" stroke-width="0.56" shape-rendering="crispEdges"/>
<path d="M21.7591 181.155C20.0389 181.155 18.7876 180.701 18.005 179.793C17.2224 178.885 16.8311 177.515 16.8311 175.684V173.647H20.8289V175.695C20.8289 176.212 20.8917 176.652 21.0172 177.013C21.1501 177.368 21.4417 177.545 21.892 177.545C22.3498 177.545 22.6414 177.353 22.7669 176.969C22.8924 176.578 22.9552 175.943 22.9552 175.064V174.577C22.9552 173.905 22.8407 173.318 22.6119 172.816C22.3904 172.314 21.9511 172.063 21.294 172.063C21.2128 172.063 21.139 172.067 21.0725 172.074C21.0135 172.074 20.9618 172.078 20.9175 172.085V168.586C21.5893 168.586 22.1024 168.438 22.4568 168.143C22.8112 167.84 22.9884 167.338 22.9884 166.637C22.9884 165.537 22.6709 164.987 22.036 164.987C21.6226 164.987 21.342 165.149 21.1944 165.474C21.0541 165.791 20.9839 166.197 20.9839 166.692V167.279H16.9529C16.9455 167.19 16.9382 167.083 16.9308 166.958C16.9308 166.832 16.9308 166.711 16.9308 166.592C16.9308 164.806 17.3479 163.495 18.1822 162.661C19.0164 161.827 20.2937 161.41 22.0138 161.41C25.3361 161.41 26.9972 163.137 26.9972 166.592C26.9972 167.552 26.868 168.346 26.6096 168.973C26.3512 169.594 25.8714 170.029 25.17 170.28C25.7237 170.546 26.1335 170.886 26.3992 171.299C26.665 171.712 26.8385 172.226 26.9197 172.838C27.0009 173.451 27.0415 174.193 27.0415 175.064C27.0415 177.013 26.6318 178.516 25.8123 179.571C25.0002 180.627 23.6491 181.155 21.7591 181.155Z" fill="#2D2C27"/>
</g>
<g filter="url(#filter7_d_4987_441)">
<rect x="48" y="158" width="28" height="28" rx="3.08" fill="#F9F5EC" shape-rendering="crispEdges"/>
<rect x="48.28" y="158.28" width="27.44" height="27.44" rx="2.8" stroke="#2D2C27" stroke-width="0.56" shape-rendering="crispEdges"/>
<path d="M57.0858 180.934V180.003C57.0858 179.036 57.2335 178.169 57.5288 177.401C57.8315 176.626 58.2191 175.91 58.6916 175.253C59.1641 174.588 59.6624 173.938 60.1866 173.303C60.696 172.683 61.1796 172.048 61.6373 171.399C62.1024 170.742 62.479 170.033 62.7669 169.272C63.0622 168.505 63.2099 167.645 63.2099 166.692C63.2099 166.234 63.1397 165.843 62.9995 165.518C62.8666 165.186 62.586 165.02 62.1578 165.02C61.5081 165.02 61.1833 165.599 61.1833 166.759V169.14H57.0858C57.0784 168.97 57.0674 168.778 57.0526 168.564C57.0452 168.35 57.0415 168.143 57.0415 167.944C57.0415 166.541 57.1892 165.352 57.4845 164.378C57.7798 163.396 58.3003 162.65 59.046 162.141C59.799 161.624 60.8547 161.365 62.2132 161.365C63.83 161.365 65.0851 161.819 65.9784 162.728C66.8791 163.636 67.3295 164.931 67.3295 166.615C67.3295 167.759 67.1818 168.763 66.8865 169.627C66.5912 170.483 66.1999 171.266 65.7126 171.975C65.2254 172.676 64.6901 173.377 64.1069 174.079C63.6934 174.573 63.2911 175.079 62.8998 175.596C62.5159 176.113 62.1763 176.666 61.881 177.257H67.1966V180.934H57.0858Z" fill="#2D2C27"/>
</g>
<g filter="url(#filter8_d_4987_441)">
<rect x="87" y="158" width="28" height="28" rx="3.08" fill="#F9F5EC" shape-rendering="crispEdges"/>
<rect x="87.28" y="158.28" width="27.44" height="27.44" rx="2.8" stroke="#2D2C27" stroke-width="0.56" shape-rendering="crispEdges"/>
<path d="M99.9396 180.934V165.917C99.6739 166.234 99.3084 166.493 98.8433 166.692C98.3782 166.884 97.9389 166.98 97.5255 166.98V163.868C97.9168 163.809 98.3376 163.684 98.7879 163.492C99.2383 163.292 99.6554 163.023 100.039 162.683C100.431 162.336 100.73 161.919 100.936 161.432H104.07V180.934H99.9396Z" fill="#2D2C27"/>
</g>
<rect x="8.33333" y="11.3333" width="106.333" height="60.3333" rx="3.33333" fill="#F3F3F5" stroke="black" stroke-width="0.666667"/>
<defs>
<filter id="filter0_d_4987_441" x="8" y="82" width="29.12" height="29.12" filterUnits="userSpaceOnUse" color-interpolation-filters="sRGB">
<feFlood flood-opacity="0" result="BackgroundImageFix"/>
<feColorMatrix in="SourceAlpha" type="matrix" values="0 0 0 0 0 0 0 0 0 0 0 0 0 0 0 0 0 0 127 0" result="hardAlpha"/>
<feOffset dx="1.12" dy="1.12"/>
<feComposite in2="hardAlpha" operator="out"/>
<feColorMatrix type="matrix" values="0 0 0 0 0.176471 0 0 0 0 0.172549 0 0 0 0 0.152941 0 0 0 1 0"/>
<feBlend mode="normal" in2="BackgroundImageFix" result="effect1_dropShadow_4987_441"/>
<feBlend mode="normal" in="SourceGraphic" in2="effect1_dropShadow_4987_441" result="shape"/>
</filter>
<filter id="filter1_d_4987_441" x="48" y="82" width="29.12" height="29.12" filterUnits="userSpaceOnUse" color-interpolation-filters="sRGB">
<feFlood flood-opacity="0" result="BackgroundImageFix"/>
<feColorMatrix in="SourceAlpha" type="matrix" values="0 0 0 0 0 0 0 0 0 0 0 0 0 0 0 0 0 0 127 0" result="hardAlpha"/>
<feOffset dx="1.12" dy="1.12"/>
<feComposite in2="hardAlpha" operator="out"/>
<feColorMatrix type="matrix" values="0 0 0 0 0.176471 0 0 0 0 0.172549 0 0 0 0 0.152941 0 0 0 1 0"/>
<feBlend mode="normal" in2="BackgroundImageFix" result="effect1_dropShadow_4987_441"/>
<feBlend mode="normal" in="SourceGraphic" in2="effect1_dropShadow_4987_441" result="shape"/>
</filter>
<filter id="filter2_d_4987_441" x="87" y="82" width="29.12" height="29.12" filterUnits="userSpaceOnUse" color-interpolation-filters="sRGB">
<feFlood flood-opacity="0" result="BackgroundImageFix"/>
<feColorMatrix in="SourceAlpha" type="matrix" values="0 0 0 0 0 0 0 0 0 0 0 0 0 0 0 0 0 0 127 0" result="hardAlpha"/>
<feOffset dx="1.12" dy="1.12"/>
<feComposite in2="hardAlpha" operator="out"/>
<feColorMatrix type="matrix" values="0 0 0 0 0.176471 0 0 0 0 0.172549 0 0 0 0 0.152941 0 0 0 1 0"/>
<feBlend mode="normal" in2="BackgroundImageFix" result="effect1_dropShadow_4987_441"/>
<feBlend mode="normal" in="SourceGraphic" in2="effect1_dropShadow_4987_441" result="shape"/>
</filter>
<filter id="filter3_d_4987_441" x="8" y="120" width="29.12" height="29.12" filterUnits="userSpaceOnUse" color-interpolation-filters="sRGB">
<feFlood flood-opacity="0" result="BackgroundImageFix"/>
<feColorMatrix in="SourceAlpha" type="matrix" values="0 0 0 0 0 0 0 0 0 0 0 0 0 0 0 0 0 0 127 0" result="hardAlpha"/>
<feOffset dx="1.12" dy="1.12"/>
<feComposite in2="hardAlpha" operator="out"/>
<feColorMatrix type="matrix" values="0 0 0 0 0.176471 0 0 0 0 0.172549 0 0 0 0 0.152941 0 0 0 1 0"/>
<feBlend mode="normal" in2="BackgroundImageFix" result="effect1_dropShadow_4987_441"/>
<feBlend mode="normal" in="SourceGraphic" in2="effect1_dropShadow_4987_441" result="shape"/>
</filter>
<filter id="filter4_d_4987_441" x="48" y="120" width="29.12" height="29.12" filterUnits="userSpaceOnUse" color-interpolation-filters="sRGB">
<feFlood flood-opacity="0" result="BackgroundImageFix"/>
<feColorMatrix in="SourceAlpha" type="matrix" values="0 0 0 0 0 0 0 0 0 0 0 0 0 0 0 0 0 0 127 0" result="hardAlpha"/>
<feOffset dx="1.12" dy="1.12"/>
<feComposite in2="hardAlpha" operator="out"/>
<feColorMatrix type="matrix" values="0 0 0 0 0.176471 0 0 0 0 0.172549 0 0 0 0 0.152941 0 0 0 1 0"/>
<feBlend mode="normal" in2="BackgroundImageFix" result="effect1_dropShadow_4987_441"/>
<feBlend mode="normal" in="SourceGraphic" in2="effect1_dropShadow_4987_441" result="shape"/>
</filter>
<filter id="filter5_d_4987_441" x="87" y="120" width="29.12" height="29.12" filterUnits="userSpaceOnUse" color-interpolation-filters="sRGB">
<feFlood flood-opacity="0" result="BackgroundImageFix"/>
<feColorMatrix in="SourceAlpha" type="matrix" values="0 0 0 0 0 0 0 0 0 0 0 0 0 0 0 0 0 0 127 0" result="hardAlpha"/>
<feOffset dx="1.12" dy="1.12"/>
<feComposite in2="hardAlpha" operator="out"/>
<feColorMatrix type="matrix" values="0 0 0 0 0.176471 0 0 0 0 0.172549 0 0 0 0 0.152941 0 0 0 1 0"/>
<feBlend mode="normal" in2="BackgroundImageFix" result="effect1_dropShadow_4987_441"/>
<feBlend mode="normal" in="SourceGraphic" in2="effect1_dropShadow_4987_441" result="shape"/>
</filter>
<filter id="filter6_d_4987_441" x="8" y="158" width="29.12" height="29.12" filterUnits="userSpaceOnUse" color-interpolation-filters="sRGB">
<feFlood flood-opacity="0" result="BackgroundImageFix"/>
<feColorMatrix in="SourceAlpha" type="matrix" values="0 0 0 0 0 0 0 0 0 0 0 0 0 0 0 0 0 0 127 0" result="hardAlpha"/>
<feOffset dx="1.12" dy="1.12"/>
<feComposite in2="hardAlpha" operator="out"/>
<feColorMatrix type="matrix" values="0 0 0 0 0.176471 0 0 0 0 0.172549 0 0 0 0 0.152941 0 0 0 1 0"/>
<feBlend mode="normal" in2="BackgroundImageFix" result="effect1_dropShadow_4987_441"/>
<feBlend mode="normal" in="SourceGraphic" in2="effect1_dropShadow_4987_441" result="shape"/>
</filter>
<filter id="filter7_d_4987_441" x="48" y="158" width="29.12" height="29.12" filterUnits="userSpaceOnUse" color-interpolation-filters="sRGB">
<feFlood flood-opacity="0" result="BackgroundImageFix"/>
<feColorMatrix in="SourceAlpha" type="matrix" values="0 0 0 0 0 0 0 0 0 0 0 0 0 0 0 0 0 0 127 0" result="hardAlpha"/>
<feOffset dx="1.12" dy="1.12"/>
<feComposite in2="hardAlpha" operator="out"/>
<feColorMatrix type="matrix" values="0 0 0 0 0.176471 0 0 0 0 0.172549 0 0 0 0 0.152941 0 0 0 1 0"/>
<feBlend mode="normal" in2="BackgroundImageFix" result="effect1_dropShadow_4987_441"/>
<feBlend mode="normal" in="SourceGraphic" in2="effect1_dropShadow_4987_441" result="shape"/>
</filter>
<filter id="filter8_d_4987_441" x="87" y="158" width="29.12" height="29.12" filterUnits="userSpaceOnUse" color-interpolation-filters="sRGB">
<feFlood flood-opacity="0" result="BackgroundImageFix"/>
<feColorMatrix in="SourceAlpha" type="matrix" values="0 0 0 0 0 0 0 0 0 0 0 0 0 0 0 0 0 0 127 0" result="hardAlpha"/>
<feOffset dx="1.12" dy="1.12"/>
<feComposite in2="hardAlpha" operator="out"/>
<feColorMatrix type="matrix" values="0 0 0 0 0.176471 0 0 0 0 0.172549 0 0 0 0 0.152941 0 0 0 1 0"/>
<feBlend mode="normal" in2="BackgroundImageFix" result="effect1_dropShadow_4987_441"/>
<feBlend mode="normal" in="SourceGraphic" in2="effect1_dropShadow_4987_441" result="shape"/>
</filter>
</defs>
</svg>
